<?xml version="1.0" encoding="UTF-8"?>
<svg width="24px" height="20px" viewBox="0 0 24 20" version="1.1" xmlns="http://www.w3.org/2000/svg" xmlns:xlink="http://www.w3.org/1999/xlink">
    <title>logo-twitter</title>
    <g id="Symbols" stroke="none" stroke-width="1" fill="none" fill-rule="evenodd">
        <g id="Recommended-Footer---Mobile" transform="translate(-155.000000, -141.000000)" fill="#FFFFFF" fill-rule="nonzero">
            <g id="logo-twitter" transform="translate(155.000000, 141.000000)">
                <path d="M24,2.27500848 C23.0997281,2.66618471 22.1471933,2.92389969 21.1725,3.04000848 C22.1968342,2.44019805 22.9671594,1.48729179 23.339,0.36000848 C22.3705478,0.926304286 21.3127784,1.32364411 20.211,1.53500848 C19.2733996,0.552378224 17.9736791,-0.00250173743 16.6155,-1.42108547e-15 C13.8945,-1.42108547e-15 11.6925,2.17000848 11.6925,4.84500848 C11.6905708,5.21709091 11.7332077,5.58806555 11.8195,5.95000848 C7.87420312,5.76505432 4.18944063,3.92630339 1.6695,0.88500848 C1.23228742,1.62206857 1.00106606,2.46303048 1,3.32000848 C1,5 1.8765,6.48500848 3.2,7.35500848 C2.41586391,7.33639886 1.64779539,7.12885913 0.961,6.75000848 L0.961,6.81000848 C0.961,9.16000848 2.661,11.1150085 4.911,11.5600085 C4.48789169,11.6727995 4.05188407,11.7299478 3.614,11.7300085 C3.30328938,11.7305503 2.99328478,11.700404 2.6885,11.6400085 C3.314,13.5650085 5.1345,14.9650085 7.291,15.0050085 C5.53868927,16.3554707 3.38730924,17.0853781 1.175,17.0800085 C0.782308994,17.0794245 0.389982789,17.0560518 0,17.0100085 C2.25058982,18.447117 4.8667224,19.2072776 7.537,19.2000601 C16.605,19.2000601 21.559,11.8150085 21.559,5.41000848 C21.559,5.20000848 21.5535,4.99000848 21.5435,4.78500848 C22.5050447,4.10103805 23.3369017,3.25106407 24,2.27500848 Z" id="Path"></path>
            </g>
        </g>
    </g>
</svg>