<?xml version="1.0" encoding="UTF-8"?>
<svg width="24px" height="24px" viewBox="0 0 24 24" version="1.1" xmlns="http://www.w3.org/2000/svg" xmlns:xlink="http://www.w3.org/1999/xlink">
    <title>logo-linkedin</title>
    <g id="Symbols" stroke="none" stroke-width="1" fill="none" fill-rule="evenodd">
        <g id="Recommended-Footer---Mobile" transform="translate(-235.000000, -139.000000)" fill="#FFFFFF" fill-rule="nonzero">
            <g id="logo-linkedin" transform="translate(235.000000, 139.000000)">
                <path d="M22.080468,0 L2.05070799,0 C0.956247066,0 0,0.787497584 0,1.86910141 L0,21.9433255 C0,23.0308222 0.956247066,23.9999264 2.05070799,23.9999264 L22.0745751,23.9999264 C23.1749289,23.9999264 23.9999634,23.0243937 23.9999634,21.9433255 L23.9999634,1.86910141 C24.0063549,0.787497584 23.1749289,0 22.080468,0 Z M7.43944146,20.0051172 L4.00123772,20.0051172 L4.00123772,9.31497142 L7.43944146,9.31497142 L7.43944146,20.0051172 Z M5.8392678,7.68961927 L5.81462502,7.68961927 C4.71427125,7.68961927 4.00177344,6.87051464 4.00177344,5.84516064 C4.00177344,4.8010567 4.73302119,4.00123772 5.85801774,4.00123772 C6.98301429,4.00123772 7.67140504,4.79516386 7.69604782,5.84516064 C7.69551211,6.87051464 6.98301429,7.68961927 5.8392678,7.68961927 Z M20.0051172,20.0051172 L16.5669135,20.0051172 L16.5669135,14.1599566 C16.5669135,12.7596037 16.0665579,11.8028209 14.8226331,11.8028209 C13.8722789,11.8028209 13.3097806,12.4456761 13.0596028,13.0719242 C12.9658531,13.2969235 12.9406746,13.6033511 12.9406746,13.9162073 L12.9406746,20.0051172 L9.50247085,20.0051172 L9.50247085,9.31497142 L12.9406746,9.31497142 L12.9406746,10.8026454 C13.4410302,10.0901476 14.2226349,9.06479362 16.0413794,9.06479362 C18.2983367,9.06479362 20.0056529,10.5524676 20.0056529,13.7597792 L20.0051172,20.0051172 Z" id="Shape"></path>
            </g>
        </g>
    </g>
</svg>