<?xml version="1.0" encoding="UTF-8"?>
<svg width="24px" height="24px" viewBox="0 0 24 24" version="1.1" xmlns="http://www.w3.org/2000/svg" xmlns:xlink="http://www.w3.org/1999/xlink">
    <title>logo-facebook</title>
    <g id="Symbols" stroke="none" stroke-width="1" fill="none" fill-rule="evenodd">
        <g id="Recommended-Footer---Mobile" transform="translate(-75.000000, -139.000000)" fill="#FFFFFF" fill-rule="nonzero">
            <g id="logo-facebook" transform="translate(75.000000, 139.000000)">
                <path d="M24,12 C24,5.37321429 18.6267857,1.52259158e-15 12,1.52259158e-15 C5.37321429,1.52259158e-15 0,5.37321429 0,12 C0,17.9892857 4.3875,22.95375 10.125,23.8548214 L10.125,15.4698214 L7.07732143,15.4698214 L7.07732143,12 L10.125,12 L10.125,9.35625 C10.125,6.34928571 11.9169643,4.68696429 14.6576786,4.68696429 C15.9707143,4.68696429 17.3442857,4.92160714 17.3442857,4.92160714 L17.3442857,7.875 L15.8303571,7.875 C14.3405357,7.875 13.8744643,8.79964286 13.8744643,9.75 L13.8744643,12 L17.2023214,12 L16.6708929,15.4698214 L13.875,15.4698214 L13.875,23.8558929 C19.6125,22.9553571 24,17.9908929 24,12 Z" id="Path"></path>
            </g>
        </g>
    </g>
</svg>