<?xml version="1.0" encoding="UTF-8"?>
<svg width="24px" height="24px" viewBox="0 0 24 24" version="1.1" xmlns="http://www.w3.org/2000/svg" xmlns:xlink="http://www.w3.org/1999/xlink">
    <title>logo-instagram</title>
    <g id="Symbols" stroke="none" stroke-width="1" fill="none" fill-rule="evenodd">
        <g id="Recommended-Footer---Mobile" transform="translate(-115.000000, -139.000000)" fill="#FFFFFF" fill-rule="nonzero">
            <g id="logo-instagram" transform="translate(115.000000, 139.000000)">
                <path d="M16.9998214,1.99982143 C19.7580233,2.00805843 21.9919416,4.24197666 22.0001786,7.00017857 L22.0001786,16.9998214 C21.9919416,19.7580233 19.7580233,21.9919416 16.9998214,22.0001786 L7.00017857,22.0001786 C4.24197666,21.9919416 2.00805843,19.7580233 1.99982143,16.9998214 L1.99982143,7.00017857 C2.00805843,4.24197666 4.24197666,2.00805843 7.00017857,1.99982143 L16.9998214,1.99982143 M16.9998214,0 L7.00017857,0 C3.15,0 0,3.15 0,7.00017857 L0,16.9998214 C0,20.85 3.15,24 7.00017857,24 L16.9998214,24 C20.85,24 24,20.85 24,16.9998214 L24,7.00017857 C24,3.15 20.85,0 16.9998214,0 Z" id="Shape"></path>
                <path d="M18.4998214,7.00017857 C17.6713943,7.00017857 16.9998214,6.3286057 16.9998214,5.50017857 C16.9998214,4.67175145 17.6713943,4.00017857 18.4998214,4.00017857 C19.3282486,4.00017857 19.9998214,4.67175145 19.9998214,5.50017857 C20.0006772,5.89826504 19.8429168,6.28029335 19.5614265,6.56178364 C19.2799362,6.84327394 18.8979079,7.00103437 18.4998214,7.00017857 L18.4998214,7.00017857 Z" id="Path"></path>
                <path d="M12,7.99982143 C13.6179212,7.99982143 15.0765315,8.97443365 15.6956831,10.4691979 C16.3148347,11.9639622 15.9725964,13.6845103 14.8285534,14.8285534 C13.6845103,15.9725964 11.9639622,16.3148347 10.4691979,15.6956831 C8.97443365,15.0765315 7.99982143,13.6179212 7.99982143,12 C8.00218352,9.79174153 9.79174153,8.00218352 12,7.99982143 M12,6 C8.6862915,6 6,8.6862915 6,12 C6,15.3137085 8.6862915,18 12,18 C15.3137085,18 18,15.3137085 18,12 C18,10.4087011 17.367859,8.88257758 16.2426407,7.75735931 C15.1174224,6.63214104 13.5912989,6 12,6 Z" id="Shape"></path>
            </g>
        </g>
    </g>
</svg>