<?xml version="1.0" encoding="UTF-8"?>
<svg width="24px" height="24px" viewBox="0 0 24 24" version="1.1" xmlns="http://www.w3.org/2000/svg" xmlns:xlink="http://www.w3.org/1999/xlink">
    <title>music-icon</title>
    <g id="Symbols" stroke="none" stroke-width="1" fill="none" fill-rule="evenodd">
        <g id="Recommended-Footer---Mobile" transform="translate(-275.000000, -139.000000)" fill="#FFFFFF" fill-rule="nonzero">
            <g id="music-icon" transform="translate(274.999821, 138.999821)">
                <path d="M17.20868,4.19214092 C16.979447,4.01552949 16.6806874,3.95657074 16.4015462,4.03285698 L9.28305432,5.94640703 C8.77501571,6.08286032 8.42363844,6.54573229 8.42877815,7.0717516 L8.42877815,15.14309 C8.42877815,15.3838016 8.2730656,15.5916564 8.03199687,15.6727269 L8.0277112,15.6745126 L6.17058909,16.3173626 C5.46023989,16.5548599 5.00017857,17.2144954 5.00017857,17.9969867 C4.99496576,18.6428727 5.30449954,19.2508807 5.82987862,19.6266113 C6.16325718,19.8687937 6.56459188,19.9995306 6.97665152,20.0001786 C7.19222658,19.9998025 7.40631353,19.964463 7.610573,19.8955369 L7.62414428,19.8908941 L8.40413557,19.6073258 C9.09783958,19.3757379 9.56721871,18.7283134 9.57162252,17.9969867 L9.57162252,10.4256427 C9.57162252,10.1652885 9.74197776,9.95386225 10.0059034,9.88743443 L10.0134033,9.88529159 L16.2501193,8.21959592 C16.292821,8.20857014 16.3382214,8.2178855 16.3731311,8.24483578 C16.4080408,8.27178606 16.4285457,8.31334955 16.4286888,8.35745152 L16.4286888,13.4263235 C16.4286888,13.6673922 16.2769047,13.8684614 16.0319075,13.9506033 L16.022979,13.9538176 L14.2054993,14.600596 C13.4802308,14.8391411 12.9927281,15.5196226 13.0001556,16.2830772 C12.9936795,16.9309151 13.3032592,17.5412789 13.8297892,17.9187733 C14.3452966,18.2914378 15.0101084,18.3894003 15.6111979,18.1812703 L15.6240549,18.1769847 L16.4040462,17.8930593 C17.0976945,17.6616063 17.5670862,17.0143081 17.5715468,16.2830772 L17.5715468,4.9289184 C17.5731095,4.63994513 17.4387123,4.36705 17.20868,4.19214092 Z M17.9999463,0 C21.3097787,0.00988437789 23.9904726,2.69057826 24.000357,6.00041068 L24.000357,17.9999463 C23.9904726,21.3097787 21.3097787,23.9904726 17.9999463,24.000357 L6.00041068,24.000357 C2.69057826,23.9904726 0.00988437789,21.3097787 0,17.9999463 L0,6.00041068 C0.00988437789,2.69057826 2.69057826,0.00988437789 6.00041068,0 L17.9999463,0" id="Shape"></path>
            </g>
        </g>
    </g>
</svg>